<svg xmlns="http://www.w3.org/2000/svg" viewBox="0 0 481.13 95.99"><defs><style>.cls-1{isolation:isolate;}.cls-2{fill:#42454f;}.cls-3{fill:#cbc7c0;}.cls-4{mix-blend-mode:soft-light;}.cls-5{fill:#00b2bf;}.cls-6{fill:#fff;}</style></defs><title>Logo one line</title><g class="cls-1"><g id="Layer_1" data-name="Layer 1"><path class="cls-2" d="M2052.94,354.3h-11v-3.24h25.92v3.24h-11v39.6h-3.84V354.3Z" transform="translate(-1921 -329.61)"/><path class="cls-2" d="M2065.72,362h3.6v5h0.12a8.43,8.43,0,0,1,8-5.7,4.56,4.56,0,0,1,1.26.18v3.6a9,9,0,0,0-1.74-.18c-4,0-7.68,2.88-7.68,9.06V393.9h-3.6V362Z" transform="translate(-1921 -329.61)"/><path class="cls-2" d="M2080.25,371.52c0-6.54,3.12-10.2,9.84-10.2s9,3.42,9,8.46v18.84c0,1.8.6,2.64,1.86,2.64h1v2.64a5,5,0,0,1-1.68.36c-2.82,0-4.62-.66-4.62-4v-1.08h-0.12c-1.44,4.2-4.68,5.4-8.22,5.4-5.58,0-8.1-3.48-8.1-9,0-4.2,1.92-7.56,6.42-8.82l6.78-1.92c2.52-.72,3.06-1.32,3.06-5,0-4.08-2.28-5.52-5.52-5.52-4.26,0-6.12,2.58-6.12,7.2h-3.6Zm15.24,4.38h-0.12c-0.36,1.08-2.4,1.74-3.84,2.1l-3,.78c-3.6,1-5.46,2.82-5.46,6.6s1.92,6.24,5,6.24c4.38,0,7.38-3.3,7.38-9V375.9Z" transform="translate(-1921 -329.61)"/><path class="cls-2" d="M2103.46,362h3.24v4.44h0.12a9,9,0,0,1,8.16-5.16c4.86,0,8.16,2.52,8.16,8.52V393.9h-3.6v-23c0-4.38-1.8-6.54-5.46-6.54-4.2,0-7,3.24-7,8.16V393.9h-3.6V362Z" transform="translate(-1921 -329.61)"/><path class="cls-2" d="M2133.64,378.06c-4.5-1.74-6.12-4.38-6.12-7.56,0-6.54,4.08-9.18,9.48-9.18,6,0,8.76,3.06,8.76,8.88v0.9h-3.6v-0.9c0-4.14-1.92-5.88-5.22-5.88-4.2,0-5.82,2.22-5.82,5.4,0,2.22.72,4,4.32,5.34l5.22,2c4.32,1.62,5.94,4.62,5.94,8.1,0,5.46-3.12,9.48-9.84,9.48-6.54,0-9.78-2.7-9.78-9.9v-1h3.6v0.84c0,4.68,2,7.08,6.12,7.08,3.84,0,6.3-2.16,6.3-5.7,0-2.82-1.14-4.62-4.32-5.88Z" transform="translate(-1921 -329.61)"/><path class="cls-2" d="M2150.08,362h3.24v4.56h0.12a8.07,8.07,0,0,1,7.86-5.28c7.08,0,10.14,5.64,10.14,16.68s-3.18,16.62-10.2,16.62c-4,0-6.66-2.16-7.44-5.52h-0.12v15.36h-3.6V362Zm10.68,2.28a6.13,6.13,0,0,0-5,2.82c-1.56,2.22-2,5.34-2,10.86,0,11.76,3.3,13.62,7,13.62s7-1.86,7-13.62C2167.6,366.42,2164.24,364.32,2160.76,364.32Z" transform="translate(-1921 -329.61)"/><path class="cls-2" d="M2174.92,371.52c0-6.54,3.12-10.2,9.84-10.2s9,3.42,9,8.46v18.84c0,1.8.6,2.64,1.86,2.64h1v2.64a5,5,0,0,1-1.68.36c-2.82,0-4.62-.66-4.62-4v-1.08h-0.12c-1.44,4.2-4.68,5.4-8.22,5.4-5.58,0-8.1-3.48-8.1-9,0-4.2,1.92-7.56,6.42-8.82l6.78-1.92c2.52-.72,3.06-1.32,3.06-5,0-4.08-2.28-5.52-5.52-5.52-4.26,0-6.12,2.58-6.12,7.2h-3.6Zm15.24,4.38H2190c-0.36,1.08-2.4,1.74-3.84,2.1l-3,.78c-3.6,1-5.46,2.82-5.46,6.6s1.92,6.24,5,6.24c4.38,0,7.38-3.3,7.38-9V375.9Z" transform="translate(-1921 -329.61)"/><path class="cls-2" d="M2199.64,362h3.6v5h0.12a8.43,8.43,0,0,1,8-5.7,4.56,4.56,0,0,1,1.26.18v3.6a9,9,0,0,0-1.74-.18c-4,0-7.68,2.88-7.68,9.06V393.9h-3.6V362Z" transform="translate(-1921 -329.61)"/><path class="cls-2" d="M2234.44,383.34c-0.54,6.78-4.26,11.28-10.26,11.28-6.72,0-10.68-4.68-10.68-16.68,0-11,4-16.62,11-16.62s10.26,4.86,10.26,15.48v1.32h-17.4v1.5c0,9.18,3.24,12,6.78,12,3.78,0,6.12-2.7,6.72-8.28h3.6Zm-3.54-8.22c-0.12-7.92-2.34-10.8-6.78-10.8s-6.66,2.88-6.78,10.8h13.56Z" transform="translate(-1921 -329.61)"/><path class="cls-2" d="M2238.88,362h3.24v4.44h0.12a9,9,0,0,1,8.16-5.16c4.86,0,8.16,2.52,8.16,8.52V393.9H2255v-23c0-4.38-1.8-6.54-5.46-6.54-4.2,0-7,3.24-7,8.16V393.9h-3.6V362Z" transform="translate(-1921 -329.61)"/><path class="cls-2" d="M2283.16,383.34c-0.54,6.78-4.26,11.28-10.14,11.28-6.72,0-10.68-4.68-10.68-16.68,0-11,4-16.62,11-16.62,6,0,9.48,3.66,9.84,10.2h-3.6c-0.42-5-2.4-7.2-6.24-7.2s-7.14,2.4-7.14,13.68c0,12,3.42,13.62,6.78,13.62,3.66,0,6-2.7,6.6-8.28h3.6Z" transform="translate(-1921 -329.61)"/><path class="cls-2" d="M2283.88,362h3.84l7.14,27.6H2295l6.42-27.6h3.84l-9.3,34.44c-1.68,6.24-3.6,8-8.46,8-1,0-1.68-.06-2.4-0.12v-3c0.78,0.06,1.56.12,2.34,0.12,2.22,0,3.72-.9,4.74-4.26l0.9-3Z" transform="translate(-1921 -329.61)"/><path class="cls-3" d="M2333.74,350.22c13,0,14.58,9.24,14.58,22.26s-1.62,22.26-14.58,22.26-14.58-9.24-14.58-22.26S2320.78,350.22,2333.74,350.22Zm0,38.16c5.1,0,5.94-4.38,5.94-15.9s-0.84-15.9-5.94-15.9-5.94,4.44-5.94,15.9S2328.64,388.38,2333.74,388.38Z" transform="translate(-1921 -329.61)"/><path class="cls-3" d="M2350.18,361.62h7.92v3.78h0.12a8.86,8.86,0,0,1,8.22-4.62c5.16,0,8.22,2.82,8.22,9.18V393.9h-8.28V371.64c0-3.24-1.08-4.5-3.54-4.5-2.82,0-4.38,1.74-4.38,5.34V393.9h-8.28V361.62Z" transform="translate(-1921 -329.61)"/><path class="cls-3" d="M2385.76,379v2.58c0,3.78,1,7.5,4.08,7.5,2.76,0,3.9-2.1,4.38-6.06h7.44c-0.3,7.5-3.9,11.7-11.7,11.7-12,0-12.48-9.24-12.48-17.28,0-8.64,1.68-16.68,12.84-16.68,9.66,0,11.82,6.48,11.82,16.38V379h-16.38Zm8.46-4.92c-0.18-4.92-.78-7.68-4.2-7.68s-4.26,3.42-4.26,6.42v1.26h8.46Z" transform="translate(-1921 -329.61)"/><g class="cls-4"><polygon class="cls-5" points="27.85 95.49 0.43 47.99 27.85 0.5 82.69 0.5 110.12 47.99 82.69 95.49 27.85 95.49"/></g><path class="cls-6" d="M1977.49,374.5a3.32,3.32,0,0,1,.86.51l10.45-18.09a3.31,3.31,0,0,1-.88-0.48Z" transform="translate(-1921 -329.61)"/><path class="cls-6" d="M2031.55,377.35l-27.42-47.49h-0.29l-0.14-.25h-54.84l-0.18.18-0.25.07L1921,377.35l0.14,0.25-0.14.25,27.42,47.49,0.25,0.07,0.18,0.18h54.84l0.14-.25h0.29l27.42-47.49-0.07-.25Zm-38.72-21.28,36.42,21h-49.69a2.5,2.5,0,0,1,0,1h49.69l-36.42,21-0.23.14a3.31,3.31,0,0,1,.49.87L2029.75,379l-26.05,45.13L1992,403.9a3.31,3.31,0,0,1-.87.5l11.66,20.19h-52.11l36.7-21.19a3.32,3.32,0,0,1-.52-0.85l-36.67,21.17,24.84-43a3.31,3.31,0,0,1-.86-0.51l-24.85,43V380.89a2.5,2.5,0,0,1-1,0v42.35L1922.3,378.1h23.28a2.5,2.5,0,0,1,0-1H1922.3L1948.36,332v42.35a2.5,2.5,0,0,1,1,0V332l24.85,43a3.31,3.31,0,0,1,.86-0.51l-24.84-43,36.59,21.13a3.31,3.31,0,0,1,.5-0.87l-36.59-21.13h52.11l-11.61,20.11a3.33,3.33,0,0,1,.84.54l11.63-20.15,26.05,45.13L1993,355a3.31,3.31,0,0,1-.51.86Z" transform="translate(-1921 -329.61)"/><path class="cls-6" d="M1973,377.1h-20.84a2.5,2.5,0,0,1,0,1H1973A2.5,2.5,0,0,1,1973,377.1Z" transform="translate(-1921 -329.61)"/><path class="cls-6" d="M1987.9,398.72a3.31,3.31,0,0,1,.86-0.51l-10.4-18a3.31,3.31,0,0,1-.86.51Z" transform="translate(-1921 -329.61)"/><path class="cls-6" d="M1989.92,357.13a3.33,3.33,0,1,1,3.33-3.33A3.34,3.34,0,0,1,1989.92,357.13Zm0-5.67a2.33,2.33,0,1,0,2.33,2.33A2.34,2.34,0,0,0,1989.92,351.46Z" transform="translate(-1921 -329.61)"/><path class="cls-6" d="M1976.28,380.93a3.33,3.33,0,1,1,3.33-3.33A3.34,3.34,0,0,1,1976.28,380.93Zm0-5.67a2.33,2.33,0,1,0,2.33,2.33A2.34,2.34,0,0,0,1976.28,375.27Z" transform="translate(-1921 -329.61)"/><path class="cls-6" d="M1948.87,380.93a3.33,3.33,0,1,1,3.33-3.33A3.34,3.34,0,0,1,1948.87,380.93Zm0-5.67a2.33,2.33,0,1,0,2.33,2.33A2.34,2.34,0,0,0,1948.87,375.27Z" transform="translate(-1921 -329.61)"/><path class="cls-6" d="M1990,404.64a3.33,3.33,0,1,1,3.33-3.33A3.34,3.34,0,0,1,1990,404.64Zm0-5.67a2.33,2.33,0,1,0,2.33,2.33A2.34,2.34,0,0,0,1990,399Z" transform="translate(-1921 -329.61)"/><path class="cls-2" d="M2314.32,376.7v2.12h-8.5V376.7h8.5Z" transform="translate(-1921 -329.61)"/></g></g></svg>